<svg width="16" height="15" viewBox="0 0 16 15" fill="none" xmlns="http://www.w3.org/2000/svg">
<path d="M7.76401 0.681559C7.8417 0.457383 8.15874 0.457382 8.23644 0.681558L9.90135 5.48537C9.93623 5.58601 10.031 5.6535 10.1376 5.6535H15.4892C15.7353 5.6535 15.8333 5.9716 15.63 6.11012L11.3287 9.03984C11.2354 9.10341 11.1963 9.22164 11.2332 9.32833L12.8826 14.0873C12.9615 14.3148 12.7047 14.5114 12.5057 14.3758L8.14096 11.4029C8.05605 11.345 7.9444 11.345 7.85949 11.4029L3.49478 14.3758C3.29576 14.5114 3.03897 14.3148 3.11783 14.0873L4.7672 9.32833C4.80418 9.22164 4.76505 9.10341 4.67172 9.03984L0.370479 6.11012C0.167105 5.9716 0.265147 5.6535 0.511216 5.6535H5.86288C5.9694 5.6535 6.06422 5.58601 6.0991 5.48537L7.76401 0.681559Z" fill="#FBB040"/>
</svg>
